G04 ================== begin FILE IDENTIFICATION RECORD ==================*
G04 Layout Name:  MY_TEST730.brd*
G04 Film Name:    SilkB*
G04 File Format:  Gerber RS274X*
G04 File Origin:  Cadence Allegro 17.2-P019*
G04 Origin Date:  Tue Jul 30 17:23:37 2019*
G04 *
G04 Layer:  REF DES/SILKSCREEN_TOP*
G04 Layer:  PACKAGE GEOMETRY/SILKSCREEN_BOTTOM*
G04 Layer:  BOARD GEOMETRY/SILKSCREEN_BOTTOM*
G04 *
G04 Offset:    (0.000 0.000)*
G04 Mirror:    No*
G04 Mode:      Positive*
G04 Rotation:  0*
G04 FullContactRelief:  No*
G04 UndefLineWidth:     0.200*
G04 ================== end FILE IDENTIFICATION RECORD ====================*
%FSLAX25Y25*MOMM*%
%IR0*IPPOS*OFA0.00000B0.00000*MIA0B0*SFA1.00000B1.00000*%
%ADD10C,.4*%
%ADD11C,.2*%
G75*
%LPD*%
G75*
G54D10*
G01X4528000Y190200D02*
X4461400D01*
Y590200D01*
X4528000D01*
G01X4501400Y396900D02*
X4461400D01*
G01X4576600Y590200D02*
Y190200D01*
X4643200D01*
G01X4758400D02*
X4691800D01*
Y590200D01*
X4758400D01*
G01X4731800Y396900D02*
X4691800D01*
G01X4877000Y556900D02*
X4867000Y576900D01*
X4855300Y590200D01*
X4842000D01*
X4827000Y570200D01*
X4815300Y536900D01*
X4807000Y496900D01*
X4800300Y430200D01*
X4798600Y370200D01*
X4802000Y310200D01*
X4807000Y270200D01*
X4817000Y230200D01*
X4828600Y203500D01*
X4840300Y190200D01*
X4852000D01*
X4863600Y203500D01*
X4873600Y223500D01*
X4882000Y250200D01*
G01X4955500Y590200D02*
Y190200D01*
G01X4917200Y590200D02*
X4993800D01*
G01X5037400Y190200D02*
Y590200D01*
X5079000D01*
X5092400Y570200D01*
X5100700Y543500D01*
X5104000Y490200D01*
X5100700Y436900D01*
X5090700Y403500D01*
X5079000Y383500D01*
X5037400D01*
G01X5079000D02*
X5104000Y190200D01*
G01X5185900D02*
X5172600Y196900D01*
X5160900Y223500D01*
X5150900Y263500D01*
X5144200Y310200D01*
X5140900Y363500D01*
Y416900D01*
X5144200Y470200D01*
X5150900Y516900D01*
X5160900Y556900D01*
X5172600Y583500D01*
X5185900Y590200D01*
X5199200Y583500D01*
X5210900Y556900D01*
X5220900Y516900D01*
X5227600Y470200D01*
X5230900Y416900D01*
Y363500D01*
X5227600Y310200D01*
X5220900Y263500D01*
X5210900Y223500D01*
X5199200Y196900D01*
X5185900Y190200D01*
G01X5262800D02*
Y590200D01*
X5339400Y190200D01*
Y590200D01*
G01X5396300D02*
X5436300D01*
G01X5416300D02*
Y190200D01*
G01X5396300D02*
X5436300D01*
G01X5568200Y556900D02*
X5558200Y576900D01*
X5546500Y590200D01*
X5533200D01*
X5518200Y570200D01*
X5506500Y536900D01*
X5498200Y496900D01*
X5491500Y430200D01*
X5489800Y370200D01*
X5493200Y310200D01*
X5498200Y270200D01*
X5508200Y230200D01*
X5519800Y203500D01*
X5531500Y190200D01*
X5543200D01*
X5554800Y203500D01*
X5564800Y223500D01*
X5573200Y250200D01*
G01X5798600Y556900D02*
X5788600Y576900D01*
X5776900Y590200D01*
X5763600D01*
X5748600Y570200D01*
X5736900Y536900D01*
X5728600Y496900D01*
X5721900Y430200D01*
X5720200Y370200D01*
X5723600Y310200D01*
X5728600Y270200D01*
X5738600Y230200D01*
X5750200Y203500D01*
X5761900Y190200D01*
X5773600D01*
X5785200Y203500D01*
X5795200Y223500D01*
X5803600Y250200D01*
G01X5835400Y190200D02*
X5877100Y590200D01*
X5918800Y190200D01*
G01X5903800Y330200D02*
X5850400D01*
G01X5955600Y190200D02*
Y590200D01*
X5989000D01*
X6002300Y570200D01*
X6012300Y543500D01*
X6020600Y503500D01*
X6027300Y456900D01*
X6029000Y390200D01*
X6027300Y323500D01*
X6020600Y276900D01*
X6012300Y236900D01*
X6002300Y210200D01*
X5989000Y190200D01*
X5955600D01*
G54D11*
G01X750600Y1313900D02*
X758400Y1318800D01*
X763700Y1324600D01*
X766300Y1331500D01*
X763700Y1339200D01*
X758400Y1345100D01*
X750600Y1350900D01*
X740100Y1352900D01*
X687600D01*
G01X700700Y1393600D02*
X692800Y1399400D01*
X688900Y1406300D01*
X687600Y1414000D01*
X690200Y1423800D01*
X696800Y1430600D01*
X704700Y1432500D01*
X712500Y1431600D01*
X719100Y1427700D01*
X732200Y1408200D01*
X741400Y1399400D01*
X754500Y1393600D01*
X766300Y1391700D01*
Y1432500D01*
G01X1099100Y6110300D02*
X1086400Y6102300D01*
X1077900Y6092600D01*
X1073700Y6081400D01*
X1077900Y6068500D01*
X1086400Y6058800D01*
X1099100Y6049200D01*
X1116000Y6046000D01*
X1200700D01*
G01X1073700Y5948700D02*
X1200700D01*
X1175300Y5968000D01*
G01X1073700D02*
Y5929400D01*
G01X2837900Y2167800D02*
Y2076800D01*
X2844300Y2057700D01*
X2857200Y2045000D01*
X2873200Y2040800D01*
X2889300Y2045000D01*
X2902200Y2057700D01*
X2908600Y2076800D01*
Y2167800D01*
G01X2967400Y2066200D02*
X2977000Y2051400D01*
X2989900Y2042900D01*
X3004400Y2040800D01*
X3017200Y2042900D01*
X3030100Y2053500D01*
X3038100Y2066200D01*
X3039700Y2078900D01*
X3036500Y2093700D01*
X3025300Y2104300D01*
X3014000Y2108500D01*
X2999500D01*
G01X3014000D02*
X3023700Y2114900D01*
X3031700Y2125500D01*
X3034900Y2138200D01*
X3031700Y2150900D01*
X3023700Y2161400D01*
X3009200Y2167800D01*
X2994700Y2165700D01*
X2980200Y2157200D01*
G01X3172800Y2302000D02*
X3163200Y2308400D01*
X3151900Y2312600D01*
X3139100D01*
X3124600Y2306200D01*
X3113300Y2295700D01*
X3105300Y2283000D01*
X3098800Y2261800D01*
X3097200Y2242700D01*
X3100500Y2223700D01*
X3105300Y2211000D01*
X3114900Y2198300D01*
X3126200Y2189800D01*
X3137400Y2185600D01*
X3148700D01*
X3160000Y2189800D01*
X3169600Y2196200D01*
X3177700Y2204600D01*
G01X3231600Y2211000D02*
X3241200Y2196200D01*
X3254100Y2187700D01*
X3268600Y2185600D01*
X3281400Y2187700D01*
X3294300Y2198300D01*
X3302300Y2211000D01*
X3303900Y2223700D01*
X3300700Y2238500D01*
X3289500Y2249100D01*
X3278200Y2253300D01*
X3263700D01*
G01X3278200D02*
X3287900Y2259700D01*
X3295900Y2270300D01*
X3299100Y2283000D01*
X3295900Y2295700D01*
X3287900Y2306200D01*
X3273400Y2312600D01*
X3258900Y2310500D01*
X3244400Y2302000D01*
G01X2918800Y3927600D02*
X2909200Y3934000D01*
X2897900Y3938200D01*
X2885100D01*
X2870600Y3931800D01*
X2859300Y3921300D01*
X2851300Y3908600D01*
X2844800Y3887400D01*
X2843200Y3868300D01*
X2846500Y3849300D01*
X2851300Y3836600D01*
X2860900Y3823900D01*
X2872200Y3815400D01*
X2883400Y3811200D01*
X2894700D01*
X2906000Y3815400D01*
X2915600Y3821800D01*
X2923700Y3830200D01*
G01X2982400Y3917000D02*
X2992000Y3929700D01*
X3003300Y3936100D01*
X3016200Y3938200D01*
X3032300Y3934000D01*
X3043500Y3923400D01*
X3046700Y3910700D01*
X3045100Y3898000D01*
X3038700Y3887400D01*
X3006500Y3866200D01*
X2992000Y3851400D01*
X2982400Y3830200D01*
X2979200Y3811200D01*
X3046700D01*
G01X2837900Y5977800D02*
Y5886800D01*
X2844300Y5867700D01*
X2857200Y5855000D01*
X2873200Y5850800D01*
X2889300Y5855000D01*
X2902200Y5867700D01*
X2908600Y5886800D01*
Y5977800D01*
G01X3002700Y5850800D02*
Y5977800D01*
X2983400Y5952400D01*
G01Y5850800D02*
X3022000D01*
G01X3934800Y3927600D02*
X3925200Y3934000D01*
X3913900Y3938200D01*
X3901100D01*
X3886600Y3931800D01*
X3875300Y3921300D01*
X3867300Y3908600D01*
X3860800Y3887400D01*
X3859200Y3868300D01*
X3862500Y3849300D01*
X3867300Y3836600D01*
X3876900Y3823900D01*
X3888200Y3815400D01*
X3899400Y3811200D01*
X3910700D01*
X3922000Y3815400D01*
X3931600Y3821800D01*
X3939700Y3830200D01*
G01X4028900Y3811200D02*
Y3938200D01*
X4009600Y3912800D01*
G01Y3811200D02*
X4048200D01*
G01X3522600Y5708600D02*
X3562800Y5581600D01*
X3603100Y5708600D01*
G01X3660200Y5581600D02*
Y5708600D01*
X3700400D01*
X3713300Y5702200D01*
X3721300Y5693800D01*
X3724500Y5676800D01*
X3721300Y5659900D01*
X3711700Y5649300D01*
X3700400Y5643000D01*
X3660200D01*
G01X3700400D02*
X3724500Y5581600D01*
G01X3821800D02*
Y5708600D01*
X3802500Y5683200D01*
G01Y5581600D02*
X3841100D01*
G01X4078500Y5846200D02*
X4157200D01*
Y5821800D01*
X4153300Y5814000D01*
X4148000Y5809200D01*
X4137500Y5807200D01*
X4127000Y5809200D01*
X4120500Y5815000D01*
X4116500Y5821800D01*
Y5846200D01*
G01Y5821800D02*
X4078500Y5807200D01*
G01X4144100Y5766500D02*
X4152000Y5760700D01*
X4155900Y5753800D01*
X4157200Y5746100D01*
X4154600Y5736300D01*
X4148000Y5729500D01*
X4140100Y5727600D01*
X4132300Y5728500D01*
X4125700Y5732400D01*
X4112600Y5751900D01*
X4103400Y5760700D01*
X4090300Y5766500D01*
X4078500Y5768400D01*
Y5727600D01*
G01X4621600Y1791900D02*
Y1870600D01*
X4646000D01*
X4653800Y1866700D01*
X4658600Y1861400D01*
X4660600Y1850900D01*
X4658600Y1840400D01*
X4652800Y1833900D01*
X4646000Y1829900D01*
X4621600D01*
G01X4646000D02*
X4660600Y1791900D01*
G01X4717900D02*
X4719800Y1809000D01*
X4722700Y1823400D01*
X4726600Y1836500D01*
X4731500Y1850900D01*
X4739300Y1870600D01*
X4700300D01*
G01X4611900Y3097000D02*
X4533200D01*
Y3121400D01*
X4537100Y3129200D01*
X4542400Y3134000D01*
X4552900Y3136000D01*
X4563400Y3134000D01*
X4569900Y3128200D01*
X4573900Y3121400D01*
Y3097000D01*
G01Y3121400D02*
X4611900Y3136000D01*
G01X4600100Y3173800D02*
X4606700Y3179600D01*
X4610600Y3186400D01*
X4611900Y3195200D01*
X4609300Y3204000D01*
X4604000Y3210800D01*
X4594800Y3215600D01*
X4584400Y3216600D01*
X4573900Y3214700D01*
X4567300Y3209800D01*
X4562100Y3203000D01*
X4560700Y3196200D01*
X4562100Y3189400D01*
X4567300Y3180600D01*
X4533200Y3183500D01*
Y3209800D01*
G01X4726200Y4412700D02*
X4647500D01*
Y4437100D01*
X4651400Y4444900D01*
X4656700Y4449700D01*
X4667200Y4451700D01*
X4677700Y4449700D01*
X4684200Y4443900D01*
X4688200Y4437100D01*
Y4412700D01*
G01Y4437100D02*
X4726200Y4451700D01*
G01Y4522600D02*
X4647500D01*
X4703900Y4486600D01*
Y4535200D01*
G01X5129600Y1791900D02*
Y1870600D01*
X5154000D01*
X5161800Y1866700D01*
X5166600Y1861400D01*
X5168600Y1850900D01*
X5166600Y1840400D01*
X5160800Y1833900D01*
X5154000Y1829900D01*
X5129600D01*
G01X5154000D02*
X5168600Y1791900D01*
G01X5227800D02*
X5234600Y1793200D01*
X5242400Y1797100D01*
X5247300Y1803700D01*
X5249200Y1812900D01*
X5247300Y1822100D01*
X5241400Y1829900D01*
X5232700Y1833900D01*
X5222900D01*
X5217100Y1836500D01*
X5212200Y1843100D01*
X5210300Y1852200D01*
X5213200Y1861400D01*
X5220000Y1868000D01*
X5227800Y1870600D01*
X5235600Y1868000D01*
X5242400Y1861400D01*
X5245300Y1852200D01*
X5243400Y1843100D01*
X5238500Y1836500D01*
X5232700Y1833900D01*
X5222900D01*
X5214200Y1829900D01*
X5208300Y1822100D01*
X5206400Y1812900D01*
X5208300Y1803700D01*
X5213200Y1797100D01*
X5221000Y1793200D01*
X5227800Y1791900D01*
G01X5147300Y3286700D02*
X5128300Y3289900D01*
X5111800Y3302600D01*
X5097500Y3321600D01*
X5088000Y3343800D01*
X5083300Y3369200D01*
Y3394700D01*
X5088000Y3420100D01*
X5097500Y3442300D01*
X5111800Y3461300D01*
X5128300Y3474000D01*
X5147300Y3477200D01*
X5166300Y3474000D01*
X5182800Y3461300D01*
X5197100Y3442300D01*
X5206600Y3420100D01*
X5211300Y3394700D01*
Y3369200D01*
X5206600Y3343800D01*
X5197100Y3321600D01*
X5182800Y3302600D01*
X5166300Y3289900D01*
X5147300Y3286700D01*
G01X5166300Y3337500D02*
X5194700Y3286700D01*
G01X5337800D02*
Y3477200D01*
X5309400Y3439100D01*
G01Y3286700D02*
X5366200D01*
G01X6110500Y2798200D02*
X6189200D01*
Y2773800D01*
X6185300Y2766000D01*
X6180000Y2761200D01*
X6169500Y2759200D01*
X6159000Y2761200D01*
X6152500Y2767000D01*
X6148500Y2773800D01*
Y2798200D01*
G01Y2773800D02*
X6110500Y2759200D01*
G01X6143300Y2718500D02*
X6152500Y2711700D01*
X6157700Y2705800D01*
X6160300Y2698100D01*
X6157700Y2691200D01*
X6152500Y2686400D01*
X6144600Y2682500D01*
X6135400Y2681500D01*
X6127600Y2682500D01*
X6119700Y2686400D01*
X6113100Y2692200D01*
X6110500Y2699000D01*
X6113100Y2706800D01*
X6121000Y2713600D01*
X6132800Y2717500D01*
X6145900Y2718500D01*
X6163000Y2716500D01*
X6172100Y2713600D01*
X6181300Y2708800D01*
X6187900Y2701900D01*
X6189200Y2695100D01*
X6186600Y2688300D01*
X6180000Y2683500D01*
G01X5856500Y4322200D02*
X5935200D01*
Y4297800D01*
X5931300Y4290000D01*
X5926000Y4285200D01*
X5915500Y4283200D01*
X5905000Y4285200D01*
X5898500Y4291000D01*
X5894500Y4297800D01*
Y4322200D01*
G01Y4297800D02*
X5856500Y4283200D01*
G01X5872200Y4245400D02*
X5863100Y4239600D01*
X5857800Y4231800D01*
X5856500Y4223000D01*
X5857800Y4215200D01*
X5864400Y4207500D01*
X5872200Y4202600D01*
X5880100Y4201600D01*
X5889300Y4203600D01*
X5895800Y4210400D01*
X5898500Y4217200D01*
Y4225900D01*
G01Y4217200D02*
X5902400Y4211300D01*
X5909000Y4206500D01*
X5916800Y4204500D01*
X5924700Y4206500D01*
X5931300Y4211300D01*
X5935200Y4220100D01*
X5933900Y4228900D01*
X5928600Y4237600D01*
G01X6647900Y2167800D02*
Y2076800D01*
X6654300Y2057700D01*
X6667200Y2045000D01*
X6683200Y2040800D01*
X6699300Y2045000D01*
X6712200Y2057700D01*
X6718600Y2076800D01*
Y2167800D01*
G01X6832100Y2040800D02*
Y2167800D01*
X6772500Y2076800D01*
X6853000D01*
G01X6872500Y5084200D02*
X6951200D01*
Y5059800D01*
X6947300Y5052000D01*
X6942000Y5047200D01*
X6931500Y5045200D01*
X6921000Y5047200D01*
X6914500Y5053000D01*
X6910500Y5059800D01*
Y5084200D01*
G01Y5059800D02*
X6872500Y5045200D01*
G01Y4986000D02*
X6951200D01*
X6935500Y4997700D01*
G01X6872500D02*
Y4974300D01*
G01X7840600Y5708600D02*
X7880800Y5581600D01*
X7921100Y5708600D01*
G01X7978200Y5581600D02*
Y5708600D01*
X8018400D01*
X8031300Y5702200D01*
X8039300Y5693800D01*
X8042500Y5676800D01*
X8039300Y5659900D01*
X8029700Y5649300D01*
X8018400Y5643000D01*
X7978200D01*
G01X8018400D02*
X8042500Y5581600D01*
G01X8109300Y5687400D02*
X8118900Y5700100D01*
X8130200Y5706500D01*
X8143100Y5708600D01*
X8159200Y5704400D01*
X8170400Y5693800D01*
X8173600Y5681100D01*
X8172000Y5668400D01*
X8165600Y5657800D01*
X8133400Y5636600D01*
X8118900Y5621800D01*
X8109300Y5600600D01*
X8106100Y5581600D01*
X8173600D01*
G01X8313100Y571500D02*
Y508000D01*
X8299600D01*
X8294100Y511200D01*
X8290100Y515400D01*
X8286700Y521800D01*
X8284000Y529200D01*
X8283300Y539800D01*
X8284000Y550300D01*
X8286700Y557700D01*
X8290100Y564100D01*
X8294100Y568300D01*
X8299600Y571500D01*
X8313100D01*
G01X8242400D02*
Y508000D01*
X8250500Y520700D01*
G01Y571500D02*
X8234300D01*
G01X8171900Y2167800D02*
Y2076800D01*
X8178300Y2057700D01*
X8191200Y2045000D01*
X8207200Y2040800D01*
X8223300Y2045000D01*
X8236200Y2057700D01*
X8242600Y2076800D01*
Y2167800D01*
G01X8301400Y2059800D02*
X8311000Y2049300D01*
X8322300Y2042900D01*
X8336700Y2040800D01*
X8351200Y2045000D01*
X8362500Y2053500D01*
X8370500Y2068300D01*
X8372100Y2085200D01*
X8368900Y2102200D01*
X8360900Y2112800D01*
X8349600Y2121200D01*
X8338400Y2123300D01*
X8327100Y2121200D01*
X8312600Y2112800D01*
X8317400Y2167800D01*
X8360900D01*
G01X8171900Y4199800D02*
Y4108800D01*
X8178300Y4089700D01*
X8191200Y4077000D01*
X8207200Y4072800D01*
X8223300Y4077000D01*
X8236200Y4089700D01*
X8242600Y4108800D01*
Y4199800D01*
G01X8306200Y4178600D02*
X8315800Y4191300D01*
X8327100Y4197700D01*
X8340000Y4199800D01*
X8356100Y4195600D01*
X8367300Y4185000D01*
X8370500Y4172300D01*
X8368900Y4159600D01*
X8362500Y4149000D01*
X8330300Y4127800D01*
X8315800Y4113000D01*
X8306200Y4091800D01*
X8303000Y4072800D01*
X8370500D01*
G01X8939600Y1791900D02*
Y1870600D01*
X8964000D01*
X8971800Y1866700D01*
X8976600Y1861400D01*
X8978600Y1850900D01*
X8976600Y1840400D01*
X8970800Y1833900D01*
X8964000Y1829900D01*
X8939600D01*
G01X8964000D02*
X8978600Y1791900D01*
G01X9021300Y1801100D02*
X9028100Y1794500D01*
X9035900Y1791900D01*
X9043600Y1794500D01*
X9050500Y1802400D01*
X9055300Y1814200D01*
X9057300Y1826000D01*
Y1840400D01*
X9055300Y1852200D01*
X9050500Y1862700D01*
X9044600Y1868000D01*
X9037800Y1870600D01*
X9030000Y1868000D01*
X9024200Y1862700D01*
X9020300Y1854900D01*
X9018300Y1844400D01*
X9020300Y1835200D01*
X9025100Y1826000D01*
X9031000Y1820800D01*
X9037800Y1819400D01*
X9045600Y1822100D01*
X9051400Y1828600D01*
X9057300Y1840400D01*
G01X9179100Y1521000D02*
X9186900Y1525900D01*
X9192200Y1531700D01*
X9194800Y1538600D01*
X9192200Y1546300D01*
X9186900Y1552200D01*
X9179100Y1558000D01*
X9168600Y1560000D01*
X9116100D01*
G01X9179100Y1597800D02*
X9188200Y1603600D01*
X9193500Y1611400D01*
X9194800Y1620200D01*
X9193500Y1628000D01*
X9186900Y1635700D01*
X9179100Y1640600D01*
X9171200Y1641600D01*
X9162000Y1639600D01*
X9155500Y1632800D01*
X9152800Y1626000D01*
Y1617300D01*
G01Y1626000D02*
X9148900Y1631900D01*
X9142300Y1636700D01*
X9134500Y1638700D01*
X9126600Y1636700D01*
X9120000Y1631900D01*
X9116100Y1623100D01*
X9117400Y1614300D01*
X9122700Y1605600D01*
M02*
