G04 ================== begin FILE IDENTIFICATION RECORD ==================*
G04 Layout Name:  MY_TEST730.brd*
G04 Film Name:    SolderB*
G04 File Format:  Gerber RS274X*
G04 File Origin:  Cadence Allegro 17.2-P019*
G04 Origin Date:  Tue Jul 30 17:23:37 2019*
G04 *
G04 Layer:  VIA CLASS/SOLDERMASK_BOTTOM*
G04 Layer:  PIN/SOLDERMASK_BOTTOM*
G04 Layer:  PACKAGE GEOMETRY/SOLDERMASK_BOTTOM*
G04 Layer:  BOARD GEOMETRY/SOLDERMASK_BOTTOM*
G04 *
G04 Offset:    (0.000 0.000)*
G04 Mirror:    No*
G04 Mode:      Positive*
G04 Rotation:  0*
G04 FullContactRelief:  No*
G04 UndefLineWidth:     0.000*
G04 ================== end FILE IDENTIFICATION RECORD ====================*
%FSLAX25Y25*MOMM*%
%IR0*IPPOS*OFA0.00000B0.00000*MIA0B0*SFA1.00000B1.00000*%
%ADD14C,2.032*%
%ADD12C,1.118*%
%ADD16R,2.032X2.032*%
%ADD15C,1.473*%
%ADD11C,1.905*%
%ADD10C,3.683*%
%ADD13R,1.905X1.905*%
%LPD*%
G75*
G54D10*
X500000Y500000D03*
Y6500000D03*
X9500000Y500000D03*
Y6500000D03*
G54D11*
X916200Y1931600D03*
Y1677600D03*
Y1423600D03*
Y5233600D03*
Y5487600D03*
Y5741600D03*
Y5995600D03*
X1932200Y1423600D03*
Y1677600D03*
Y1931600D03*
Y5233600D03*
Y5487600D03*
Y5741600D03*
X2694200Y1423600D03*
Y1677600D03*
Y1931600D03*
Y2185600D03*
Y5233600D03*
Y5487600D03*
Y5741600D03*
Y5995600D03*
X3456200Y3455600D03*
Y3709600D03*
X3710200Y1931600D03*
Y1677600D03*
X3964200Y4979600D03*
X3710200Y5233600D03*
X3964200Y5487600D03*
X4472200Y3455600D03*
Y3709600D03*
X5742200Y1423600D03*
Y1677600D03*
Y1931600D03*
X6504200Y1423600D03*
Y1677600D03*
Y1931600D03*
Y2185600D03*
X7266200Y1423600D03*
Y1677600D03*
Y1931600D03*
Y3455600D03*
Y3709600D03*
Y3963600D03*
X8028200Y1423600D03*
Y1677600D03*
Y1931600D03*
Y2185600D03*
Y3455600D03*
Y3709600D03*
Y3963600D03*
Y4217600D03*
Y5233600D03*
X8282200Y4979600D03*
Y5487600D03*
X9334500Y1905000D03*
Y1651000D03*
G54D12*
X916200Y1677600D03*
X925900Y5995600D03*
X916200D03*
X2694200Y5233600D03*
Y5487600D03*
X3465900Y4471600D03*
X3456200D03*
Y5995600D03*
X4472200Y2185600D03*
X4218200Y2947600D03*
X4472200Y3455600D03*
Y5995600D03*
X4980200Y1169600D03*
X5488200Y2947600D03*
X5234200Y3709600D03*
X6250200Y4471600D03*
X7266200Y1931600D03*
Y3709600D03*
X7275900Y3455600D03*
X8028200Y1677600D03*
Y3709600D03*
Y3963600D03*
X8790200Y1169600D03*
X8799900Y2185600D03*
G54D13*
X1932200D03*
Y5995600D03*
X5742200Y2185600D03*
X7266200D03*
Y4217600D03*
G54D14*
X3456200Y4471600D03*
Y5995600D03*
X4218200Y2947600D03*
X4472200Y1169600D03*
X4980200D03*
X4472200Y2185600D03*
X4980200D03*
X4472200Y4471600D03*
Y5995600D03*
X5488200Y2947600D03*
X5234200D03*
Y4471600D03*
X6504200Y2947600D03*
X6250200Y4471600D03*
Y5233600D03*
X7266200D03*
X8790200Y1169600D03*
X8661400Y698500D03*
X8790200Y2185600D03*
G54D15*
X5234200Y3709600D03*
X5361200Y3836600D03*
X5488200Y3709600D03*
G54D16*
X7747000Y698500D03*
M02*
