G04 ================== begin FILE IDENTIFICATION RECORD ==================*
G04 Layout Name:  MY_TEST730.brd*
G04 Film Name:    TOP*
G04 File Format:  Gerber RS274X*
G04 File Origin:  Cadence Allegro 17.2-P019*
G04 Origin Date:  Tue Jul 30 17:23:38 2019*
G04 *
G04 Layer:  BOARD GEOMETRY/DESIGN_OUTLINE*
G04 Layer:  ETCH/TOP*
G04 Layer:  PIN/TOP*
G04 Layer:  VIA CLASS/TOP*
G04 *
G04 Offset:    (0.000 0.000)*
G04 Mirror:    No*
G04 Mode:      Positive*
G04 Rotation:  0*
G04 FullContactRelief:  No*
G04 UndefLineWidth:     0.000*
G04 ================== end FILE IDENTIFICATION RECORD ====================*
%FSLAX25Y25*MOMM*%
%IR0*IPPOS*OFA0.00000B0.00000*MIA0B0*SFA1.00000B1.00000*%
%ADD11C,1.524*%
%ADD14C,1.651*%
%ADD15C,1.473*%
%ADD13R,1.524X1.524*%
%ADD17C,1.397*%
%ADD16R,1.397X1.397*%
%ADD12C,.61*%
%ADD10C,.635*%
%ADD18C,1.*%
%ADD19C,.5*%
G75*
%LPD*%
G75*
G54D10*
X500000Y500000D03*
Y6500000D03*
X9500000Y500000D03*
Y6500000D03*
G54D11*
X916200Y1931600D03*
Y1677600D03*
Y1423600D03*
Y5233600D03*
Y5487600D03*
Y5741600D03*
Y5995600D03*
X1932200Y1423600D03*
Y1677600D03*
Y1931600D03*
Y5233600D03*
Y5487600D03*
Y5741600D03*
X2694200Y1423600D03*
Y1677600D03*
Y1931600D03*
Y2185600D03*
Y5233600D03*
Y5487600D03*
Y5741600D03*
Y5995600D03*
X3456200Y3455600D03*
Y3709600D03*
X3710200Y1931600D03*
Y1677600D03*
X3964200Y4979600D03*
X3710200Y5233600D03*
X3964200Y5487600D03*
X4472200Y3455600D03*
Y3709600D03*
X5742200Y1423600D03*
Y1677600D03*
Y1931600D03*
X6504200Y1423600D03*
Y1677600D03*
Y1931600D03*
Y2185600D03*
X7266200Y1423600D03*
Y1677600D03*
Y1931600D03*
Y3455600D03*
Y3709600D03*
Y3963600D03*
X8028200Y1423600D03*
Y1677600D03*
Y1931600D03*
Y2185600D03*
Y3455600D03*
Y3709600D03*
Y3963600D03*
Y4217600D03*
Y5233600D03*
X8282200Y4979600D03*
Y5487600D03*
X9334500Y1905000D03*
Y1651000D03*
G54D12*
X916200Y1677600D03*
X925900Y5995600D03*
X916200D03*
X2694200Y5233600D03*
Y5487600D03*
X3465900Y4471600D03*
X3456200D03*
Y5995600D03*
X4472200Y2185600D03*
X4218200Y2947600D03*
X4472200Y3455600D03*
Y5995600D03*
X4980200Y1169600D03*
X5488200Y2947600D03*
X5234200Y3709600D03*
X6250200Y4471600D03*
X7266200Y1931600D03*
Y3709600D03*
X7275900Y3455600D03*
X8028200Y1677600D03*
Y3709600D03*
Y3963600D03*
X8790200Y1169600D03*
X8799900Y2185600D03*
G54D13*
X1932200D03*
Y5995600D03*
X5742200Y2185600D03*
X7266200D03*
Y4217600D03*
G54D14*
X3456200Y4471600D03*
Y5995600D03*
X4218200Y2947600D03*
X4472200Y1169600D03*
X4980200D03*
X4472200Y2185600D03*
X4980200D03*
X4472200Y4471600D03*
Y5995600D03*
X5488200Y2947600D03*
X5234200D03*
Y4471600D03*
X6504200Y2947600D03*
X6250200Y4471600D03*
Y5233600D03*
X7266200D03*
X8790200Y1169600D03*
Y2185600D03*
G54D15*
X5234200Y3709600D03*
X5361200Y3836600D03*
X5488200Y3709600D03*
G54D16*
X7747000Y698500D03*
G54D17*
X8661400D03*
G54D18*
G01X916200Y1931600D02*
X1678000D01*
X1778000Y2031600D01*
Y2313000D01*
X1878000Y2413000D01*
X2821000D01*
X2921000Y2313000D01*
Y1931600D01*
G01X1700200Y5637200D02*
X1550600Y5487600D01*
X916200D01*
G01X8028200Y3963600D02*
X8065100Y4000500D01*
X8409000D01*
X8509000Y4100500D01*
Y6250000D01*
X8409000Y6350000D01*
X1560500D01*
X1460500Y6250000D01*
Y6095600D01*
X1360500Y5995600D01*
X925900D01*
G01X2694200D02*
Y6134600D01*
X2605800Y6223000D01*
X1687500D01*
X1587500Y6123000D01*
Y5841600D01*
X1487500Y5741600D01*
X916200D01*
G01X3456200Y4471600D02*
X3275400D01*
X3175000Y4572000D01*
Y4916500D01*
X3075000Y5016500D01*
X1814500D01*
X1714500Y5116500D01*
Y5622900D01*
X1700200Y5637200D01*
G01X1932200Y5995600D02*
X1793200D01*
X1700200Y5902600D01*
Y5637200D01*
G01X5742200Y1423600D02*
X5715000Y1396400D01*
Y1116000D01*
X5615000Y1016000D01*
X2032200D01*
X1932200Y1116000D01*
Y1423600D01*
G01X3710200Y1931600D02*
X2921000D01*
G01D02*
X2694200D01*
G01Y5995600D02*
X3456200D01*
G01X3710200Y1931600D02*
X4979600D01*
X4980200Y1932200D01*
Y2185600D01*
G01X4472200Y3455600D02*
X3456200D01*
G01Y4471600D02*
X3465900D01*
G01X7266200Y3709600D02*
X7012200Y3455600D01*
X4472200D01*
G01X5742200Y1423600D02*
X5895800Y1270000D01*
X7112600D01*
X7266200Y1423600D01*
G01X8028200Y1931600D02*
X8181600D01*
X8255000Y2005000D01*
Y2335600D01*
X8155000Y2435600D01*
X7198100D01*
X7127300Y2364800D01*
Y1983400D01*
X7075500Y1931600D01*
X6504200D01*
G01X8790200Y2185600D02*
Y1424200D01*
X8572500Y1206500D01*
X7593000D01*
X7493000Y1306500D01*
Y1551000D01*
X7393000Y1651000D01*
X7292800D01*
X7266200Y1677600D01*
G01Y3455600D02*
X7275900D01*
G01X8799900Y2185600D02*
X8790200D01*
G54D19*
G01X1932200Y1677600D02*
X1818200D01*
X1778000Y1637400D01*
Y1513700D01*
X1687900Y1423600D01*
X916200D01*
G01X2694200Y2185600D02*
X2667600Y2159000D01*
X2209000D01*
X2159000Y2109000D01*
Y1841500D01*
X2109000Y1791500D01*
X1030100D01*
X916200Y1677600D01*
G01X3710200D02*
X2694200D01*
G01X4472200Y1169600D02*
X2703900D01*
X2694200Y1179300D01*
Y1423600D01*
G01X5234200Y4471600D02*
X5143500Y4562300D01*
Y4649000D01*
X5093500Y4699000D01*
X3542500D01*
X3492500Y4749000D01*
Y5397500D01*
X3402400Y5487600D01*
X2694200D01*
G01X5742200Y1677600D02*
X5588000Y1831800D01*
Y2326700D01*
X5538000Y2376700D01*
X4522200D01*
X4472200Y2326700D01*
Y2185600D01*
G01X5234200Y3709600D02*
X4472200D01*
G01X5234200Y2947600D02*
X5398100Y3111500D01*
X7827600D01*
X7914300Y3198200D01*
Y3595700D01*
X8028200Y3709600D01*
G01X7266200Y3963600D02*
X7152200D01*
X7125600Y3937000D01*
X6413500D01*
X6250200Y4100300D01*
Y4471600D01*
G01X6504200Y1677600D02*
X6530800Y1651000D01*
X7062000D01*
X7112000Y1701000D01*
Y1777400D01*
X7266200Y1931600D01*
G01Y5233600D02*
X8028200D01*
G01D02*
X8232200D01*
X8282200Y5283600D01*
Y5487600D01*
M02*
